<svg xmlns="http://www.w3.org/2000/svg" xmlns:xlink="http://www.w3.org/1999/xlink" version="1.1" width="256" height="256" viewBox="0 0 256 256" xml:space="preserve">
<g style="stroke: none; stroke-width: 0; stroke-dasharray: none; stroke-linecap: butt; stroke-linejoin: miter; stroke-miterlimit: 10; fill: none; fill-rule: nonzero; opacity: 1;" transform="translate(1.4065934065934016 1.4065934065934016) scale(2.81 2.81)">
	<path d="M 25.149 81.605 c -0.03 0 -0.062 -0.001 -0.092 -0.004 c -0.381 -0.036 -0.709 -0.286 -0.844 -0.645 L 9.201 40.967 c -0.005 -0.014 -0.011 -0.028 -0.015 -0.042 c -0.079 -0.236 -0.064 -0.482 0.024 -0.697 c 0 -0.001 0 -0.002 0 -0.002 c 0.015 -0.036 0.032 -0.071 0.051 -0.105 v 0 c 0 0 0 -0.001 0.001 -0.001 C 9.329 40 9.42 39.895 9.531 39.811 L 48.904 8.61 c 0.032 -0.025 0.065 -0.048 0.1 -0.069 c 0 0 0.001 0 0.001 -0.001 l 0 0 c 0.175 -0.106 0.376 -0.158 0.599 -0.143 c 0.038 0.003 0.076 0.008 0.114 0.016 c 0.105 0.021 0.204 0.058 0.294 0.107 L 80.331 24.5 c 0.358 0.188 0.567 0.574 0.53 0.977 l -3.853 41.602 c -0.032 0.342 -0.236 0.644 -0.543 0.8 c -0.305 0.155 -0.67 0.144 -0.965 -0.032 L 45.014 49.698 L 26.004 81.123 C 25.822 81.424 25.497 81.605 25.149 81.605 z M 11.72 41.988 l 13.64 36.335 l 17.736 -29.319 L 11.72 41.988 z M 45.745 47.806 l 29.418 17.512 l 3.645 -39.359 L 50.339 10.953 L 45.745 47.806 z M 12.398 40.09 l 31.417 7.025 l 4.415 -35.419 L 12.398 40.09 z" style="stroke: none; stroke-width: 1; stroke-dasharray: none; stroke-linecap: butt; stroke-linejoin: miter; stroke-miterlimit: 10; fill: rgb(201,207,212); fill-rule: nonzero; opacity: 1;" transform=" matrix(1 0 0 1 0 0) " stroke-linecap="round"/>
	<path d="M 25.148 81.605 c -0.442 0 -0.846 -0.295 -0.965 -0.741 c -0.143 -0.533 0.174 -1.082 0.707 -1.225 l 50.864 -13.618 c 0.533 -0.144 1.082 0.174 1.225 0.707 s -0.174 1.082 -0.707 1.225 L 25.408 81.571 C 25.321 81.595 25.234 81.605 25.148 81.605 z" style="stroke: none; stroke-width: 1; stroke-dasharray: none; stroke-linecap: butt; stroke-linejoin: miter; stroke-miterlimit: 10; fill: rgb(201,207,212); fill-rule: nonzero; opacity: 1;" transform=" matrix(1 0 0 1 0 0) " stroke-linecap="round"/>
	<circle cx="76.01400000000001" cy="66.98400000000001" r="9.394" style="stroke: none; stroke-width: 1; stroke-dasharray: none; stroke-linecap: butt; stroke-linejoin: miter; stroke-miterlimit: 10; fill: rgb(241,123,123); fill-rule: nonzero; opacity: 1;" transform="  matrix(1 0 0 1 0 0) "/>
	<circle cx="10.134" cy="40.614" r="9.394" style="stroke: none; stroke-width: 1; stroke-dasharray: none; stroke-linecap: butt; stroke-linejoin: miter; stroke-miterlimit: 10; fill: rgb(247,191,80); fill-rule: nonzero; opacity: 1;" transform="  matrix(1 0 0 1 0 0) "/>
	<circle cx="25.154" cy="80.604" r="9.394" style="stroke: none; stroke-width: 1; stroke-dasharray: none; stroke-linecap: butt; stroke-linejoin: miter; stroke-miterlimit: 10; fill: rgb(126,198,197); fill-rule: nonzero; opacity: 1;" transform="  matrix(1 0 0 1 0 0) "/>
	<circle cx="49.524" cy="9.394" r="9.394" style="stroke: none; stroke-width: 1; stroke-dasharray: none; stroke-linecap: butt; stroke-linejoin: miter; stroke-miterlimit: 10; fill: rgb(241,123,123); fill-rule: nonzero; opacity: 1;" transform="  matrix(1 0 0 1 0 0) "/>
	<circle cx="79.864" cy="25.384" r="9.394" style="stroke: none; stroke-width: 1; stroke-dasharray: none; stroke-linecap: butt; stroke-linejoin: miter; stroke-miterlimit: 10; fill: rgb(126,198,197); fill-rule: nonzero; opacity: 1;" transform="  matrix(1 0 0 1 0 0) "/>
	<path d="M 62.723 40.983 c -1.121 0 -2.126 -0.645 -2.641 -1.64 c -0.103 -0.198 -0.21 -0.396 -0.323 -0.591 c -0.113 -0.196 -0.23 -0.387 -0.35 -0.575 c -0.605 -0.944 -0.66 -2.137 -0.1 -3.107 c 0.814 -1.41 0.331 -3.213 -1.079 -4.027 l -3.905 -2.254 c -1.41 -0.814 -3.213 -0.331 -4.027 1.079 l -0.001 0.001 c -0.552 0.956 -1.592 1.52 -2.695 1.466 c -0.479 -0.023 -0.961 -0.024 -1.442 0 c -1.101 0.053 -2.139 -0.512 -2.69 -1.467 l 0 -0.001 c -0.814 -1.41 -2.617 -1.893 -4.027 -1.079 l -3.905 2.254 c -1.41 0.814 -1.893 2.617 -1.079 4.027 l 0 0.001 c 0.551 0.955 0.522 2.136 -0.075 3.063 c -0.261 0.406 -0.502 0.823 -0.721 1.249 c -0.505 0.982 -1.513 1.601 -2.618 1.601 h -0.002 c -1.628 0 -2.948 1.32 -2.948 2.948 v 4.509 c 0 1.628 1.32 2.948 2.948 2.948 l 0 0 c 1.121 0 2.126 0.645 2.641 1.64 c 0.103 0.198 0.21 0.396 0.323 0.591 c 0.113 0.196 0.23 0.387 0.35 0.576 c 0.605 0.944 0.66 2.137 0.1 3.107 c -0.814 1.41 -0.331 3.213 1.079 4.027 l 3.905 2.254 c 1.41 0.814 3.213 0.331 4.027 -1.079 l 0.001 -0.001 c 0.552 -0.956 1.592 -1.52 2.695 -1.466 c 0.479 0.023 0.961 0.024 1.442 0 c 1.101 -0.053 2.139 0.512 2.69 1.467 l 0 0.001 c 0.814 1.41 2.617 1.893 4.027 1.079 l 3.905 -2.254 c 1.41 -0.814 1.893 -2.617 1.079 -4.027 l 0 -0.001 c -0.551 -0.955 -0.522 -2.136 0.075 -3.063 c 0.261 -0.406 0.502 -0.823 0.721 -1.249 c 0.505 -0.982 1.513 -1.601 2.618 -1.601 h 0.001 c 1.628 0 2.948 -1.32 2.948 -2.948 v -4.509 C 65.671 42.303 64.351 40.983 62.723 40.983 z" style="stroke: none; stroke-width: 1; stroke-dasharray: none; stroke-linecap: butt; stroke-linejoin: miter; stroke-miterlimit: 10; fill: rgb(247,191,80); fill-rule: nonzero; opacity: 1;" transform=" matrix(1 0 0 1 0 0) " stroke-linecap="round"/>
	<path d="M 43.336 38.9 h -2.382 c -2.046 0 -3.71 1.665 -3.71 3.71 v 9.86 c 0 0.553 0.448 1 1 1 s 1 -0.447 1 -1 v -5.285 h 5.802 v 5.285 c 0 0.553 0.448 1 1 1 c 0.553 0 1 -0.447 1 -1 v -9.86 C 47.046 40.565 45.382 38.9 43.336 38.9 z M 39.244 45.186 v -2.575 c 0 -0.943 0.767 -1.71 1.71 -1.71 h 2.382 c 0.943 0 1.71 0.767 1.71 1.71 v 2.575 H 39.244 z" style="stroke: none; stroke-width: 1; stroke-dasharray: none; stroke-linecap: butt; stroke-linejoin: miter; stroke-miterlimit: 10; fill: rgb(193,132,45); fill-rule: nonzero; opacity: 1;" transform=" matrix(1 0 0 1 0 0) " stroke-linecap="round"/>
	<path d="M 55.522 51.471 h -1.577 V 40.9 h 1.577 c 0.553 0 1 -0.448 1 -1 s -0.447 -1 -1 -1 h -5.154 c -0.553 0 -1 0.448 -1 1 s 0.447 1 1 1 h 1.577 v 10.57 h -1.577 c -0.553 0 -1 0.447 -1 1 s 0.447 1 1 1 h 5.154 c 0.553 0 1 -0.447 1 -1 S 56.075 51.471 55.522 51.471 z" style="stroke: none; stroke-width: 1; stroke-dasharray: none; stroke-linecap: butt; stroke-linejoin: miter; stroke-miterlimit: 10; fill: rgb(193,132,45); fill-rule: nonzero; opacity: 1;" transform=" matrix(1 0 0 1 0 0) " stroke-linecap="round"/>
</g>
</svg>
